# xmcd CD database file
#
# Track frame offsets:
#	150
#	17085
#	37627
#	53492
#	77205
#	101517
#	119699
#	142264
#	164334
#	185471
#	210878
#	231441
#	246635
#	261794
#	280168
#
# Disc length: 3923 seconds
#
# Revision: 0
# Processed by: cddbd v1.5.2PL0 Copyright (c) Steve Scherf et al.
# Submitted via: CDex 1.70beta2
#
DISCID=d10f510f
DTITLE=Various Artist - Salsa Brava De Oro
DYEAR=2009
DGENRE=Salsa
TTITLE0=Sonora Matancera - Mala Mujer
TTITLE1=La Original De Mansanilla - Mi Sombrero De Yarey
TTITLE2=El Gran Combo - Los Zapatos De Manacho
TTITLE3=Nelson Y Sus Estrellas - Llorándole
TTITLE4=Roberto Torres - La Mujer De Antonio
TTITLE5=Sonora Matancera - Fiesta
TTITLE6=José Alberto El Canario - Bailemos Otra Vez
TTITLE7=Orquesta De La Luz - Salsa Caliente De Japón
TTITLE8=Ismael Miranda - María Luisa
TTITLE9=Orquesta Fantasía - Good Living
TTITLE10=Melcochita - Camagüey
TTITLE11=Alfredo Linares - Mi Nuevo Ritmo
TTITLE12=El Gran Combo - Lamento Jibaro
TTITLE13=Gabino Pampini - Avé María Lora
TTITLE14=Trío La Rosa - La Fiesta De Los Ratones
EXTD=YEAR: 2009
EXTT0=
EXTT1=
EXTT2=
EXTT3=
EXTT4=
EXTT5=
EXTT6=
EXTT7=
EXTT8=
EXTT9=
EXTT10=
EXTT11=
EXTT12=
EXTT13=
EXTT14=
PLAYORDER=
